#define gridicons_ink_width 24
#define gridicons_ink_height 24
static unsigned char gridicons_ink_bits[] = {
   0x00, 0x00, 0x00, 0x00, 0x00, 0x00, 0x00, 0x00, 0x00, 0x00, 0x18, 0x00,
   0x00, 0x3c, 0x00, 0x00, 0x3c, 0x00, 0x00, 0x7e, 0x00, 0x00, 0xff, 0x00,
   0x00, 0xff, 0x00, 0x80, 0xff, 0x01, 0x80, 0xff, 0x01, 0xc0, 0xff, 0x03,
   0xe0, 0xff, 0x07, 0xe0, 0xff, 0x07, 0xe0, 0xff, 0x07, 0xe0, 0xff, 0x07,
   0xe0, 0xff, 0x07, 0xc0, 0xff, 0x03, 0xc0, 0xff, 0x03, 0x80, 0xff, 0x01,
   0x00, 0xff, 0x00, 0x00, 0x7c, 0x00, 0x00, 0x00, 0x00, 0x00, 0x00, 0x00 };
