#define gridicons_mail_width 24
#define gridicons_mail_height 24
static unsigned char gridicons_mail_bits[] = {
   0x00, 0x00, 0x00, 0x00, 0x00, 0x00, 0x00, 0x00, 0x00, 0x00, 0x00, 0x00,
   0xf8, 0xff, 0x1f, 0xfc, 0xff, 0x3f, 0x0c, 0x00, 0x30, 0x0c, 0x00, 0x30,
   0x0c, 0x00, 0x30, 0x3c, 0x00, 0x3c, 0xfc, 0x00, 0x3f, 0xfc, 0x81, 0x3f,
   0xfc, 0xe7, 0x3f, 0xfc, 0xff, 0x3f, 0xfc, 0xff, 0x3f, 0xfc, 0xff, 0x3f,
   0xfc, 0xff, 0x3f, 0xfc, 0xff, 0x3f, 0xfc, 0xff, 0x3f, 0xf8, 0xff, 0x1f,
   0x00, 0x00, 0x00, 0x00, 0x00, 0x00, 0x00, 0x00, 0x00, 0x00, 0x00, 0x00 };
