#define drk_width 72
#define drk_height 70
static unsigned char drk_bits[] = {
   0x00, 0x00, 0x00, 0x00, 0x00, 0x00, 0x00, 0x00, 0x00, 0x00, 0x00, 0x00,
   0x00, 0x00, 0x00, 0x00, 0x00, 0x00, 0x00, 0x00, 0x00, 0x00, 0x00, 0x00,
   0x00, 0x00, 0x00, 0x00, 0x00, 0x00, 0x00, 0x00, 0x00, 0x00, 0x00, 0x00,
   0x00, 0x00, 0x00, 0x00, 0x00, 0x00, 0x00, 0x00, 0x00, 0x00, 0x00, 0x00,
   0x00, 0x00, 0x00, 0x00, 0x00, 0x00, 0x00, 0x00, 0x00, 0x00, 0x00, 0x00,
   0x00, 0x00, 0x00, 0x00, 0x00, 0x00, 0x00, 0x00, 0x00, 0x00, 0x00, 0x00,
   0x00, 0x00, 0x00, 0x00, 0x00, 0x00, 0x00, 0x00, 0x00, 0x00, 0x00, 0x00,
   0x00, 0x00, 0x00, 0x00, 0x00, 0x00, 0x00, 0x00, 0x00, 0x00, 0x00, 0x1f,
   0x00, 0x00, 0x00, 0x00, 0x00, 0x00, 0x00, 0xc0, 0x7f, 0x00, 0x00, 0x00,
   0x00, 0x00, 0x00, 0x00, 0xf0, 0xff, 0x00, 0x00, 0x00, 0x00, 0x00, 0x00,
   0x00, 0xf8, 0xff, 0x01, 0x00, 0x00, 0x00, 0x00, 0x00, 0x00, 0xfc, 0xff,
   0x03, 0x00, 0x00, 0x00, 0x00, 0x00, 0x00, 0xfc, 0xff, 0x03, 0x00, 0x00,
   0x00, 0x00, 0x00, 0x24, 0xfc, 0xff, 0x07, 0x00, 0x00, 0x00, 0x00, 0x00,
   0x89, 0xfc, 0xff, 0x07, 0x00, 0x00, 0x00, 0x00, 0x80, 0x52, 0xf9, 0xff,
   0xe7, 0x03, 0x00, 0x00, 0x00, 0xa0, 0x54, 0xf2, 0xff, 0xff, 0x07, 0x00,
   0x00, 0x00, 0x10, 0x85, 0xea, 0xff, 0xff, 0x0f, 0x00, 0x00, 0x00, 0x50,
   0xa9, 0xca, 0xff, 0xff, 0x1f, 0x00, 0x00, 0x00, 0x28, 0x95, 0xd4, 0xff,
   0xff, 0x1f, 0x00, 0x00, 0x00, 0x48, 0xaa, 0x92, 0xff, 0xff, 0x1f, 0x00,
   0x00, 0x00, 0x50, 0x91, 0xd4, 0xc1, 0xff, 0x1f, 0x00, 0x00, 0x00, 0x54,
   0x26, 0x15, 0x2d, 0xff, 0xff, 0x01, 0x00, 0x00, 0x92, 0xa8, 0xa8, 0x52,
   0xff, 0xff, 0x07, 0x00, 0x00, 0x54, 0xa5, 0x52, 0x4a, 0xfe, 0xff, 0x07,
   0x00, 0x00, 0x48, 0x95, 0x4a, 0xa9, 0xfe, 0xff, 0x0f, 0x00, 0x80, 0x52,
   0x52, 0x52, 0x4a, 0xfd, 0xff, 0x1f, 0x00, 0x28, 0x95, 0x94, 0x94, 0x92,
   0xfe, 0xff, 0x1f, 0x00, 0xa8, 0xa4, 0x52, 0xa5, 0x54, 0xfc, 0xff, 0x1f,
   0x00, 0x92, 0x2a, 0x25, 0x29, 0xa5, 0xfe, 0xff, 0x1f, 0x00, 0xa5, 0xa4,
   0x54, 0xa5, 0x94, 0xe4, 0xff, 0x1f, 0x80, 0x14, 0x29, 0x25, 0x29, 0xa5,
   0x8a, 0xff, 0x1f, 0x00, 0xa9, 0x4a, 0x49, 0x4a, 0x29, 0x35, 0xff, 0x0f,
   0x40, 0x55, 0x52, 0xaa, 0x52, 0x4a, 0x52, 0xff, 0x07, 0x40, 0x92, 0x94,
   0x52, 0x4a, 0xa9, 0x44, 0xfc, 0x03, 0x80, 0xa4, 0x52, 0xa5, 0x94, 0x92,
   0xaa, 0x7a, 0x00, 0xa0, 0xaa, 0x4a, 0x4a, 0x29, 0xa5, 0x2a, 0x01, 0x00,
   0x80, 0x44, 0x92, 0x94, 0x52, 0x2a, 0x49, 0x02, 0x00, 0x20, 0x95, 0xaa,
   0x7f, 0xa5, 0x4a, 0xaa, 0x02, 0x00, 0x80, 0x54, 0x92, 0x7f, 0x4a, 0x54,
   0x49, 0x05, 0x00, 0x40, 0xa5, 0x94, 0xbf, 0x54, 0x49, 0x52, 0x00, 0x00,
   0x00, 0x4a, 0xa5, 0x9f, 0x92, 0x92, 0x8a, 0x05, 0x00, 0x00, 0x29, 0xc9,
   0x2f, 0x25, 0x55, 0x2a, 0x01, 0x00, 0x00, 0x4a, 0xea, 0x4f, 0xaa, 0xa4,
   0x54, 0x02, 0x00, 0x00, 0x50, 0xc5, 0x7f, 0x49, 0x49, 0x49, 0x00, 0x00,
   0x00, 0x40, 0xea, 0x7f, 0x95, 0x2a, 0x15, 0x00, 0x00, 0x00, 0x00, 0xf0,
   0x3f, 0x00, 0x00, 0x00, 0x00, 0x00, 0x00, 0x00, 0xf0, 0x1f, 0x00, 0x00,
   0x00, 0x00, 0x00, 0x00, 0x00, 0xf0, 0x0f, 0x00, 0x00, 0x00, 0x00, 0x00,
   0x00, 0x00, 0x00, 0x07, 0x00, 0x00, 0x00, 0x00, 0x00, 0x00, 0x00, 0x80,
   0x03, 0x00, 0x00, 0x00, 0x00, 0x00, 0x00, 0x00, 0x80, 0x03, 0x00, 0x00,
   0x00, 0x00, 0x00, 0x00, 0x00, 0xc0, 0x01, 0x00, 0x00, 0x00, 0x00, 0x00,
   0x00, 0x00, 0xc0, 0x00, 0x00, 0x00, 0x00, 0x00, 0x00, 0x00, 0x00, 0xe0,
   0x00, 0x00, 0x00, 0x00, 0x00, 0x00, 0x00, 0x00, 0x60, 0x00, 0x00, 0x00,
   0x00, 0x00, 0x00, 0x00, 0x00, 0x30, 0x00, 0x00, 0x00, 0x00, 0x00, 0x00,
   0x00, 0x00, 0x30, 0x00, 0x00, 0x00, 0x00, 0x00, 0x00, 0x00, 0x00, 0x10,
   0x00, 0x00, 0x00, 0x00, 0x00, 0x00, 0x00, 0x00, 0x00, 0x00, 0x00, 0x00,
   0x00, 0x00, 0x00, 0x00, 0x00, 0x00, 0x00, 0x00, 0x00, 0x00, 0x00, 0x00,
   0x00, 0x00, 0x00, 0x00, 0x00, 0x00, 0x00, 0x00, 0x00, 0x00, 0x00, 0x00,
   0x00, 0x00, 0x00, 0x00, 0x00, 0x00, 0x00, 0x00, 0x00, 0x00, 0x00, 0x00,
   0x00, 0x00, 0x00, 0x00, 0x00, 0x00, 0x00, 0x00, 0x00, 0x00, 0x00, 0x00,
   0x00, 0x00, 0x00, 0x00, 0x00, 0x00, 0x00, 0x00, 0x00, 0x00, 0x00, 0x00,
   0x00, 0x00, 0x00, 0x00, 0x00, 0x00 };
