#define 02d_2x_width 65
#define 02d_2x_height 43
static unsigned char 02d_2x_bits[] = {
   0x00, 0x00, 0x00, 0x00, 0x00, 0xf0, 0x07, 0x00, 0x00, 0x00, 0x00, 0x00,
   0x00, 0x00, 0xfe, 0x3f, 0x00, 0x00, 0x00, 0x00, 0x00, 0x00, 0x80, 0xff,
   0xff, 0x00, 0x00, 0x00, 0x00, 0x00, 0x00, 0xe0, 0xff, 0xff, 0x03, 0x00,
   0x00, 0x00, 0x00, 0x00, 0xf0, 0xff, 0xff, 0x07, 0x00, 0x00, 0x00, 0x00,
   0x00, 0xf8, 0xff, 0xff, 0x0f, 0x00, 0x00, 0x00, 0x00, 0x00, 0xfc, 0xff,
   0xff, 0x1f, 0x00, 0x00, 0x00, 0x90, 0x0a, 0xfe, 0xff, 0xff, 0x3f, 0x00,
   0x00, 0x00, 0x00, 0x20, 0xfc, 0xff, 0xff, 0x3f, 0x00, 0x00, 0x00, 0xa4,
   0x84, 0xf8, 0xff, 0xff, 0x7f, 0x00, 0x00, 0x00, 0x10, 0x10, 0xfa, 0xff,
   0xff, 0x7f, 0x00, 0x00, 0x80, 0x82, 0x42, 0xf0, 0xff, 0xff, 0xff, 0x00,
   0x00, 0x00, 0x08, 0x08, 0xe9, 0xff, 0xff, 0xff, 0x00, 0x00, 0x00, 0x21,
   0x21, 0xe0, 0xff, 0xff, 0xff, 0x01, 0x00, 0x40, 0x84, 0x84, 0xe2, 0xff,
   0xff, 0xff, 0x01, 0x00, 0x00, 0x10, 0x10, 0xc8, 0xe0, 0xff, 0xff, 0x01,
   0x00, 0x40, 0x89, 0x44, 0x42, 0x92, 0xff, 0xff, 0x01, 0x00, 0x00, 0x80,
   0x40, 0x48, 0x00, 0xff, 0xff, 0x01, 0x00, 0x80, 0x12, 0x0a, 0x01, 0x25,
   0xfe, 0xff, 0x01, 0x00, 0x00, 0x42, 0x20, 0x28, 0x84, 0xfc, 0xff, 0x01,
   0x00, 0x40, 0x08, 0x89, 0x82, 0x10, 0xfc, 0xff, 0x01, 0x00, 0x80, 0x20,
   0x00, 0x10, 0xa1, 0xfc, 0xff, 0x01, 0x00, 0x05, 0x92, 0x92, 0x04, 0x04,
   0xfe, 0xff, 0x00, 0x20, 0x50, 0x00, 0x10, 0x90, 0x48, 0xfc, 0xff, 0x00,
   0x80, 0x04, 0x25, 0x41, 0x41, 0x00, 0xfc, 0xff, 0x00, 0x00, 0x20, 0x00,
   0x0a, 0x0a, 0x52, 0xc1, 0x7f, 0x00, 0xa8, 0x8a, 0x54, 0x20, 0xa0, 0x00,
   0x24, 0x7f, 0x00, 0x00, 0x80, 0x80, 0x84, 0x04, 0x94, 0x00, 0x3e, 0x00,
   0x24, 0x09, 0x12, 0x10, 0x90, 0x00, 0x4a, 0x1c, 0x00, 0x00, 0x50, 0x80,
   0xa2, 0x02, 0x52, 0x08, 0x09, 0x00, 0x2a, 0x01, 0x25, 0x00, 0xa8, 0x00,
   0x21, 0x00, 0x00, 0x20, 0x24, 0x04, 0x2a, 0x01, 0x24, 0x84, 0x02, 0x00,
   0x84, 0x80, 0x50, 0x00, 0xa4, 0x10, 0x11, 0x00, 0x00, 0x08, 0x15, 0x81,
   0xa4, 0x00, 0x22, 0x40, 0x02, 0x00, 0x20, 0x00, 0x24, 0x00, 0x4a, 0x80,
   0x12, 0x08, 0x00, 0x84, 0xa4, 0x80, 0x4a, 0x80, 0x14, 0x42, 0x01, 0x00,
   0x10, 0x00, 0x0a, 0x20, 0x09, 0x02, 0x08, 0x08, 0x00, 0x80, 0x4a, 0x90,
   0x04, 0x50, 0x48, 0x21, 0x01, 0x00, 0x28, 0x00, 0x01, 0x90, 0x02, 0x20,
   0x04, 0x00, 0x00, 0x00, 0x29, 0xa9, 0x02, 0x48, 0x05, 0x50, 0x01, 0x00,
   0x40, 0x00, 0x00, 0x28, 0x01, 0x50, 0x01, 0x00, 0x00, 0x00, 0x25, 0x25,
   0x01, 0x52, 0x02, 0x24, 0x00, 0x00, 0x00, 0x00, 0x00, 0x24, 0x08, 0x48,
   0x01, 0x00, 0x00 };
