#define 09n_2x_width 56
#define 09n_2x_height 50
static unsigned char 09n_2x_bits[] = {
   0x00, 0x00, 0x00, 0xc0, 0x07, 0x00, 0x00, 0x00, 0x00, 0x00, 0xf0, 0x1f,
   0x00, 0x00, 0x00, 0x00, 0x00, 0xf8, 0x7f, 0x00, 0x00, 0x00, 0x00, 0x00,
   0xfc, 0x7f, 0x00, 0x00, 0x00, 0x00, 0x00, 0xfe, 0xff, 0x00, 0x00, 0x00,
   0x00, 0x00, 0xfe, 0xff, 0x01, 0x00, 0x00, 0x00, 0x00, 0xfe, 0xff, 0x01,
   0x00, 0x00, 0x00, 0x29, 0xfc, 0xff, 0x7d, 0x00, 0x00, 0x00, 0x80, 0xf8,
   0xff, 0xff, 0x00, 0x00, 0x20, 0x02, 0xf0, 0xff, 0xff, 0x01, 0x00, 0x00,
   0x88, 0xe0, 0xff, 0xff, 0x01, 0x00, 0x80, 0x00, 0xe4, 0xff, 0xff, 0x01,
   0x00, 0x10, 0x48, 0xc0, 0xff, 0xff, 0x01, 0x00, 0x00, 0x01, 0x49, 0xf0,
   0xff, 0x07, 0x00, 0x10, 0x08, 0x00, 0xc0, 0xff, 0x3f, 0x00, 0x40, 0x20,
   0x21, 0x85, 0xff, 0x7f, 0x00, 0x00, 0x01, 0x04, 0x90, 0xff, 0x7f, 0x00,
   0x12, 0x24, 0x40, 0x00, 0xff, 0xff, 0x00, 0x00, 0x00, 0x09, 0x21, 0xff,
   0xff, 0x40, 0x90, 0x04, 0x00, 0x04, 0xff, 0xff, 0x00, 0x01, 0x10, 0x12,
   0x40, 0xff, 0xff, 0x10, 0x92, 0x40, 0x80, 0x04, 0xf0, 0xff, 0x04, 0x00,
   0x02, 0x24, 0x00, 0xe0, 0x7f, 0x40, 0x04, 0x90, 0x00, 0x48, 0xc5, 0x3f,
   0x08, 0x90, 0x04, 0x40, 0x02, 0x80, 0x1f, 0x00, 0x01, 0x00, 0x09, 0x10,
   0x10, 0x00, 0x24, 0x10, 0x48, 0x40, 0x40, 0x02, 0x00, 0x00, 0x22, 0x01,
   0x82, 0x04, 0x00, 0x00, 0x48, 0x00, 0x08, 0x08, 0x40, 0x12, 0x00, 0x00,
   0x40, 0x80, 0x00, 0x08, 0x00, 0x00, 0x90, 0x04, 0x11, 0x48, 0x81, 0x24,
   0x00, 0x00, 0x08, 0x02, 0x01, 0x10, 0x00, 0x00, 0x40, 0xa0, 0x13, 0x08,
   0x01, 0x04, 0x00, 0x00, 0x81, 0x43, 0x20, 0x90, 0x00, 0x00, 0x00, 0xc4,
   0x03, 0x01, 0x01, 0x00, 0x00, 0x00, 0x80, 0x01, 0x00, 0x00, 0x00, 0x00,
   0x00, 0x00, 0x00, 0x00, 0x00, 0x00, 0x00, 0x00, 0x00, 0x00, 0xc0, 0x00,
   0x00, 0x00, 0x00, 0x00, 0x20, 0xe0, 0x01, 0x00, 0x00, 0x00, 0x00, 0xe0,
   0xe0, 0x00, 0x00, 0x00, 0x00, 0x70, 0xf0, 0x40, 0x00, 0x00, 0x00, 0x00,
   0x70, 0x70, 0x00, 0x00, 0x00, 0x00, 0x00, 0x78, 0x78, 0x00, 0x00, 0x00,
   0x00, 0x00, 0x38, 0x30, 0x00, 0x00, 0x00, 0x00, 0x00, 0x38, 0x00, 0x00,
   0x00, 0x00, 0x00, 0x00, 0x00, 0x00, 0x18, 0x00, 0x00, 0x00, 0x00, 0x00,
   0x1c, 0x1c, 0x00, 0x00, 0x00, 0x00, 0x00, 0x1c, 0x1c, 0x00, 0x00, 0x00,
   0x00, 0x00, 0x0c, 0x1c, 0x00, 0x00, 0x00, 0x00, 0x00, 0x00, 0x0c, 0x00,
   0x00, 0x00 };
