#define 10d_2x_width 52
#define 10d_2x_height 50
static unsigned char 10d_2x_bits[] = {
   0x00, 0x00, 0x00, 0x00, 0xf8, 0x01, 0x00, 0x00, 0x00, 0x00, 0x00, 0xff,
   0x0f, 0x00, 0x00, 0x00, 0x00, 0xc0, 0xff, 0x3f, 0x00, 0x00, 0x00, 0x00,
   0xe0, 0xff, 0x7f, 0x00, 0x00, 0x00, 0x00, 0xf0, 0xff, 0xff, 0x00, 0x00,
   0x00, 0x44, 0xf8, 0xff, 0xff, 0x01, 0x00, 0x00, 0x29, 0xf9, 0xff, 0xff,
   0x03, 0x00, 0x40, 0x42, 0xfa, 0xff, 0xff, 0x03, 0x00, 0x20, 0x29, 0xf9,
   0xff, 0xff, 0x07, 0x00, 0x40, 0x44, 0xe2, 0xff, 0xff, 0x07, 0x00, 0x90,
   0x92, 0xd4, 0xff, 0xff, 0x0f, 0x00, 0x50, 0x24, 0xc1, 0xff, 0xff, 0x0f,
   0x00, 0x80, 0x92, 0xd4, 0xf4, 0xff, 0x0f, 0x00, 0x28, 0x24, 0x49, 0xc9,
   0xff, 0x0f, 0x00, 0x90, 0x92, 0x24, 0xa4, 0xff, 0x0f, 0x00, 0x50, 0x92,
   0xa4, 0x24, 0xff, 0x0f, 0x00, 0x82, 0x48, 0x12, 0x49, 0xff, 0x0f, 0x40,
   0x2a, 0x89, 0x24, 0x49, 0xff, 0x0f, 0x80, 0x44, 0x52, 0x92, 0x24, 0xff,
   0x07, 0x94, 0x94, 0x04, 0x92, 0x44, 0xff, 0x07, 0x10, 0x21, 0xa9, 0x48,
   0x92, 0xf8, 0x07, 0x24, 0x25, 0x22, 0x49, 0x24, 0xe5, 0x03, 0x48, 0x94,
   0x94, 0x24, 0x49, 0xe8, 0x01, 0x49, 0x21, 0x91, 0x44, 0x92, 0x82, 0x01,
   0x24, 0x4a, 0x22, 0x29, 0x49, 0x2a, 0x00, 0x49, 0x92, 0x24, 0x22, 0x91,
   0x48, 0x00, 0x24, 0x49, 0x4a, 0x89, 0x24, 0x25, 0x00, 0x49, 0x92, 0x10,
   0x29, 0x49, 0x48, 0x00, 0x24, 0x49, 0x4a, 0x42, 0x22, 0x25, 0x00, 0x24,
   0x49, 0x49, 0x4a, 0x8a, 0x48, 0x00, 0x10, 0x22, 0x12, 0x89, 0x28, 0x25,
   0x00, 0x50, 0x4a, 0x52, 0x92, 0x42, 0x08, 0x00, 0x40, 0x90, 0x83, 0x24,
   0x94, 0x12, 0x00, 0x80, 0xd2, 0x97, 0xa4, 0x92, 0x04, 0x00, 0x00, 0xc0,
   0x03, 0x00, 0x00, 0x00, 0x00, 0x00, 0x80, 0x01, 0x00, 0x00, 0x00, 0x00,
   0x00, 0x00, 0x00, 0xc0, 0x00, 0x00, 0x00, 0x00, 0x00, 0x00, 0xe0, 0x01,
   0x00, 0x00, 0x00, 0x00, 0x60, 0xe0, 0x01, 0x00, 0x00, 0x00, 0xe0, 0xe0,
   0xc0, 0x00, 0x00, 0x00, 0x00, 0xf0, 0xf0, 0x00, 0x00, 0x00, 0x00, 0x00,
   0x70, 0x70, 0x00, 0x00, 0x00, 0x00, 0x00, 0x78, 0x70, 0x00, 0x00, 0x00,
   0x00, 0x00, 0x38, 0x30, 0x00, 0x00, 0x00, 0x00, 0x00, 0x38, 0x00, 0x30,
   0x00, 0x00, 0x00, 0x00, 0x00, 0x0c, 0x38, 0x00, 0x00, 0x00, 0x00, 0x00,
   0x1e, 0x38, 0x00, 0x00, 0x00, 0x00, 0x00, 0x1e, 0x1c, 0x00, 0x00, 0x00,
   0x00, 0x00, 0x0c, 0x1c, 0x00, 0x00, 0x00, 0x00, 0x00, 0x00, 0x0c, 0x00,
   0x00, 0x00 };
