#define 10d_2x_width 52
#define 10d_2x_height 50
static unsigned char 10d_2x_bits[] = {
   0x00, 0x00, 0x00, 0x00, 0x00, 0x00, 0x00, 0x00, 0x00, 0x00, 0x00, 0xa8,
   0x00, 0x00, 0x00, 0x00, 0x00, 0x00, 0x95, 0x0a, 0x00, 0x00, 0x00, 0x00,
   0x40, 0x22, 0x12, 0x00, 0x00, 0x00, 0x00, 0x80, 0x54, 0x49, 0x00, 0x00,
   0x00, 0x00, 0x50, 0x49, 0x12, 0x00, 0x00, 0x00, 0x00, 0x90, 0x92, 0xa4,
   0x00, 0x00, 0x00, 0x00, 0x24, 0xa4, 0x4a, 0x01, 0x00, 0x00, 0x89, 0x50,
   0x15, 0x29, 0x02, 0x00, 0x00, 0x00, 0x20, 0x51, 0xa2, 0x00, 0x00, 0x00,
   0x00, 0x80, 0x4a, 0x95, 0x02, 0x00, 0x40, 0x08, 0x21, 0x12, 0x91, 0x04,
   0x00, 0x00, 0x00, 0x80, 0x48, 0x2a, 0x01, 0x00, 0x80, 0x10, 0x04, 0x90,
   0x44, 0x05, 0x00, 0x00, 0x00, 0x20, 0x00, 0x29, 0x01, 0x00, 0x08, 0x40,
   0x80, 0x20, 0x25, 0x05, 0x00, 0x80, 0x00, 0x00, 0x00, 0x94, 0x04, 0x00,
   0x00, 0x04, 0x04, 0x02, 0x21, 0x01, 0x00, 0x08, 0x20, 0x00, 0x20, 0xaa,
   0x02, 0x80, 0x40, 0x80, 0x20, 0x80, 0x24, 0x02, 0x00, 0x00, 0x00, 0x00,
   0x02, 0x90, 0x00, 0x08, 0x00, 0x02, 0x04, 0x00, 0x52, 0x01, 0x80, 0x04,
   0x10, 0x20, 0x08, 0x00, 0x01, 0x00, 0x40, 0x40, 0x00, 0x40, 0x20, 0x00,
   0x10, 0x10, 0x00, 0x80, 0x00, 0x00, 0x00, 0x00, 0x00, 0x01, 0x04, 0x00,
   0x02, 0x00, 0x40, 0x00, 0x20, 0x00, 0x12, 0x10, 0x00, 0x02, 0x01, 0x82,
   0x20, 0x00, 0x00, 0x00, 0x00, 0x08, 0x00, 0x00, 0x20, 0x00, 0x00, 0x00,
   0x00, 0x00, 0x04, 0x00, 0x11, 0x00, 0x10, 0x10, 0x02, 0x40, 0x02, 0x00,
   0x00, 0x80, 0x00, 0x90, 0x00, 0x00, 0x00, 0x00, 0x00, 0xa0, 0x01, 0x08,
   0x48, 0x04, 0x00, 0x00, 0x81, 0x03, 0x00, 0x00, 0x00, 0x00, 0x00, 0xc0,
   0x03, 0x00, 0x00, 0x00, 0x00, 0x00, 0x80, 0x01, 0x00, 0x00, 0x00, 0x00,
   0x00, 0x00, 0x00, 0x00, 0x00, 0x00, 0x00, 0x00, 0x00, 0x00, 0xc0, 0x01,
   0x00, 0x00, 0x00, 0x00, 0x20, 0xe0, 0x01, 0x00, 0x00, 0x00, 0x20, 0xe0,
   0xc0, 0x00, 0x00, 0x00, 0x00, 0x70, 0xf0, 0x00, 0x00, 0x00, 0x00, 0x00,
   0x70, 0x70, 0x00, 0x00, 0x00, 0x00, 0x00, 0x78, 0x70, 0x00, 0x00, 0x00,
   0x00, 0x00, 0x38, 0x30, 0x00, 0x00, 0x00, 0x00, 0x00, 0x38, 0x00, 0x00,
   0x00, 0x00, 0x00, 0x00, 0x00, 0x00, 0x18, 0x00, 0x00, 0x00, 0x00, 0x00,
   0x1c, 0x38, 0x00, 0x00, 0x00, 0x00, 0x00, 0x1c, 0x1c, 0x00, 0x00, 0x00,
   0x00, 0x00, 0x0c, 0x1c, 0x00, 0x00, 0x00, 0x00, 0x00, 0x00, 0x0c, 0x00,
   0x00, 0x00 };
