#define 11d_2x_width 66
#define 11d_2x_height 54
static unsigned char 11d_2x_bits[] = {
   0x00, 0x00, 0x00, 0x00, 0xf0, 0x01, 0x00, 0x00, 0x00, 0x00, 0x00, 0x00,
   0x00, 0xfc, 0x07, 0x00, 0x00, 0x00, 0x00, 0x00, 0x00, 0x00, 0xff, 0x1f,
   0x00, 0x00, 0x00, 0x00, 0x00, 0x00, 0x80, 0xff, 0x3f, 0x00, 0x00, 0x00,
   0x00, 0x00, 0x00, 0xc0, 0xff, 0x7f, 0x00, 0x00, 0x00, 0x00, 0x00, 0x00,
   0xc0, 0xff, 0x7f, 0x00, 0x00, 0x00, 0x00, 0x00, 0x40, 0xe4, 0xff, 0xff,
   0x00, 0x00, 0x00, 0x00, 0x00, 0x48, 0xe1, 0xff, 0xff, 0x00, 0x00, 0x00,
   0x00, 0x00, 0x24, 0xaa, 0xff, 0xff, 0x7c, 0x00, 0x00, 0x00, 0x80, 0x48,
   0x22, 0xff, 0xff, 0xff, 0x00, 0x00, 0x00, 0x00, 0x25, 0x49, 0xff, 0xff,
   0xff, 0x01, 0x00, 0x00, 0x40, 0x44, 0x12, 0xfe, 0xff, 0xff, 0x03, 0x00,
   0x00, 0x80, 0x28, 0x49, 0xfd, 0xff, 0xff, 0x03, 0x00, 0x00, 0x80, 0x22,
   0x49, 0xfc, 0xff, 0xff, 0x03, 0x00, 0x00, 0x20, 0x44, 0x24, 0xfd, 0xff,
   0xff, 0x03, 0x00, 0x00, 0xa0, 0x14, 0x89, 0xb8, 0xfc, 0xff, 0x03, 0x00,
   0x00, 0x40, 0xa1, 0x24, 0x4d, 0xf2, 0xff, 0x3f, 0x00, 0x00, 0x10, 0x8a,
   0x48, 0x88, 0xe4, 0xff, 0xff, 0x00, 0x00, 0x40, 0x29, 0x25, 0x25, 0xe9,
   0xff, 0xff, 0x00, 0x00, 0x20, 0x42, 0x88, 0x48, 0xc2, 0xff, 0xff, 0x01,
   0x00, 0x90, 0x94, 0x52, 0x92, 0xd4, 0xff, 0xff, 0x03, 0x40, 0x25, 0x91,
   0x44, 0x12, 0xd1, 0xff, 0xff, 0x03, 0x40, 0x92, 0x24, 0x92, 0xa4, 0xc4,
   0xff, 0xff, 0x03, 0x48, 0x22, 0x49, 0x92, 0x88, 0xd4, 0xff, 0xff, 0x03,
   0x90, 0x94, 0x24, 0x49, 0x12, 0xd1, 0xff, 0xff, 0x03, 0x12, 0x91, 0x24,
   0x89, 0x24, 0x25, 0xf2, 0xff, 0x03, 0x48, 0x22, 0x91, 0x24, 0x49, 0x48,
   0xe9, 0xff, 0x01, 0x92, 0x24, 0x92, 0x48, 0x92, 0x12, 0xc9, 0xff, 0x00,
   0x48, 0x92, 0x44, 0x92, 0x24, 0x24, 0xd2, 0x7f, 0x00, 0x92, 0x24, 0x49,
   0x92, 0xa4, 0xa4, 0x04, 0x0f, 0x00, 0x44, 0x92, 0x24, 0x49, 0x92, 0x08,
   0xa9, 0x00, 0x00, 0x49, 0x92, 0x24, 0x10, 0x22, 0x29, 0x11, 0x00, 0x00,
   0x24, 0x49, 0x42, 0xa5, 0x94, 0x44, 0x4a, 0x00, 0x00, 0x48, 0x88, 0x94,
   0x08, 0x91, 0x94, 0x48, 0x00, 0x00, 0x24, 0x25, 0x42, 0x52, 0x22, 0x22,
   0x11, 0x00, 0x00, 0x88, 0x48, 0x4a, 0x92, 0xa4, 0x48, 0x52, 0x00, 0x00,
   0x50, 0x92, 0x88, 0x24, 0x09, 0x25, 0x09, 0x00, 0x00, 0x40, 0x92, 0x92,
   0x24, 0x52, 0x44, 0x22, 0x00, 0x00, 0x20, 0x49, 0x24, 0x91, 0x24, 0x29,
   0x09, 0x00, 0x00, 0x20, 0x91, 0x24, 0x92, 0x44, 0x42, 0x0a, 0x00, 0x00,
   0x00, 0x4a, 0x92, 0x48, 0x92, 0x14, 0x01, 0x00, 0x00, 0x00, 0x00, 0x22,
   0x01, 0x00, 0x00, 0x00, 0x00, 0x00, 0x00, 0x00, 0x44, 0x00, 0x00, 0x00,
   0x00, 0x00, 0x00, 0x00, 0x00, 0x49, 0x00, 0x00, 0x00, 0x00, 0x00, 0x00,
   0x00, 0x00, 0x10, 0x00, 0x00, 0x00, 0x00, 0x00, 0x00, 0x00, 0x00, 0x00,
   0x00, 0x00, 0x00, 0x00, 0x00, 0x00, 0x00, 0x00, 0x28, 0x00, 0x00, 0x00,
   0x00, 0x00, 0x00, 0x00, 0x00, 0x02, 0x00, 0x00, 0x00, 0x00, 0x00, 0x00,
   0x00, 0x00, 0x08, 0x00, 0x00, 0x00, 0x00, 0x00, 0x00, 0x00, 0x00, 0x02,
   0x00, 0x00, 0x00, 0x00, 0x00, 0x00, 0x00, 0x00, 0x00, 0x00, 0x00, 0x00,
   0x00, 0x00, 0x00, 0x00, 0x80, 0x00, 0x00, 0x00, 0x00, 0x00, 0x00, 0x00,
   0x00, 0x00, 0x00, 0x00, 0x00, 0x00, 0x00, 0x00, 0x00, 0x00, 0x00, 0x00,
   0x00, 0x00, 0x00, 0x00, 0x00, 0x00 };
