#define 11d_2x_width 66
#define 11d_2x_height 54
static unsigned char 11d_2x_bits[] = {
   0x00, 0x00, 0x00, 0x00, 0xf0, 0x01, 0x00, 0x00, 0x00, 0x00, 0x00, 0x00,
   0x00, 0xfc, 0x07, 0x00, 0x00, 0x00, 0x00, 0x00, 0x00, 0x00, 0xff, 0x1f,
   0x00, 0x00, 0x00, 0x00, 0x00, 0x00, 0x80, 0xff, 0x3f, 0x00, 0x00, 0x00,
   0x00, 0x00, 0x00, 0xc0, 0xff, 0x7f, 0x00, 0x00, 0x00, 0x00, 0x00, 0x00,
   0xc0, 0xff, 0x7f, 0x00, 0x00, 0x00, 0x00, 0x00, 0x00, 0xe0, 0xff, 0xff,
   0x00, 0x00, 0x00, 0x00, 0x00, 0x00, 0xe0, 0xff, 0xff, 0x00, 0x00, 0x00,
   0x00, 0x00, 0x90, 0x80, 0xff, 0xff, 0x7c, 0x00, 0x00, 0x00, 0x00, 0x00,
   0x09, 0xff, 0xff, 0xff, 0x00, 0x00, 0x00, 0x00, 0x01, 0x00, 0xfe, 0xff,
   0xff, 0x01, 0x00, 0x00, 0x00, 0x12, 0x20, 0xfe, 0xff, 0xff, 0x03, 0x00,
   0x00, 0x00, 0x40, 0x02, 0xfc, 0xff, 0xff, 0x03, 0x00, 0x00, 0x00, 0x00,
   0x44, 0xfc, 0xff, 0xff, 0x03, 0x00, 0x00, 0x40, 0x02, 0x00, 0xf8, 0xff,
   0xff, 0x03, 0x00, 0x00, 0x00, 0x90, 0x10, 0x39, 0xfc, 0xff, 0x03, 0x00,
   0x00, 0x00, 0x02, 0x04, 0x08, 0xf0, 0xff, 0x3f, 0x00, 0x00, 0x40, 0x00,
   0x40, 0x00, 0xe1, 0xff, 0xff, 0x00, 0x00, 0x00, 0x24, 0x00, 0x49, 0xc0,
   0xff, 0xff, 0x00, 0x00, 0x40, 0x00, 0x09, 0x00, 0xc4, 0xff, 0xff, 0x01,
   0x00, 0x00, 0x44, 0x00, 0x00, 0x81, 0xff, 0xff, 0x03, 0x00, 0x84, 0x00,
   0x48, 0x12, 0x88, 0xff, 0xff, 0x03, 0x80, 0x00, 0x08, 0x01, 0x00, 0x80,
   0xff, 0xff, 0x03, 0x00, 0x20, 0x10, 0x00, 0x22, 0x91, 0xff, 0xff, 0x03,
   0x10, 0x82, 0x00, 0x92, 0x00, 0x80, 0xff, 0xff, 0x03, 0x00, 0x04, 0x41,
   0x00, 0x04, 0x02, 0xf0, 0xff, 0x03, 0x20, 0x00, 0x08, 0x04, 0x10, 0x08,
   0xe0, 0xff, 0x01, 0x84, 0x10, 0x00, 0x90, 0x40, 0x40, 0xc2, 0xff, 0x00,
   0x00, 0x84, 0x90, 0x00, 0x00, 0x08, 0x80, 0x7f, 0x00, 0x10, 0x00, 0x02,
   0x02, 0x12, 0x41, 0x08, 0x0f, 0x00, 0x40, 0x08, 0x00, 0x90, 0x00, 0x00,
   0x01, 0x00, 0x00, 0x82, 0x40, 0x48, 0x00, 0x40, 0x08, 0x20, 0x00, 0x00,
   0x00, 0x10, 0x22, 0x03, 0x09, 0x01, 0x02, 0x00, 0x00, 0x08, 0x01, 0x40,
   0x12, 0x00, 0x40, 0x08, 0x00, 0x00, 0x00, 0x20, 0x54, 0x01, 0x08, 0x12,
   0x40, 0x00, 0x00, 0x20, 0x42, 0x50, 0x20, 0x41, 0x00, 0x01, 0x00, 0x00,
   0x00, 0x00, 0x24, 0x09, 0x10, 0x00, 0x04, 0x00, 0x00, 0x40, 0x84, 0x48,
   0x00, 0x80, 0x24, 0x08, 0x00, 0x00, 0x00, 0x00, 0x2a, 0x90, 0x00, 0x00,
   0x00, 0x00, 0x00, 0x80, 0x10, 0x48, 0x03, 0x12, 0x88, 0x00, 0x00, 0x00,
   0x00, 0x84, 0x52, 0x08, 0x40, 0x02, 0x02, 0x00, 0x00, 0x00, 0x00, 0x95,
   0x01, 0x00, 0x00, 0x00, 0x00, 0x00, 0x00, 0x00, 0x52, 0x00, 0x00, 0x00,
   0x00, 0x00, 0x00, 0x00, 0x80, 0x4a, 0x00, 0x00, 0x00, 0x00, 0x00, 0x00,
   0x00, 0x00, 0x10, 0x00, 0x00, 0x00, 0x00, 0x00, 0x00, 0x00, 0x00, 0x24,
   0x00, 0x00, 0x00, 0x00, 0x00, 0x00, 0x00, 0x00, 0x08, 0x00, 0x00, 0x00,
   0x00, 0x00, 0x00, 0x00, 0x00, 0x14, 0x00, 0x00, 0x00, 0x00, 0x00, 0x00,
   0x00, 0x00, 0x08, 0x00, 0x00, 0x00, 0x00, 0x00, 0x00, 0x00, 0x00, 0x02,
   0x00, 0x00, 0x00, 0x00, 0x00, 0x00, 0x00, 0x00, 0x02, 0x00, 0x00, 0x00,
   0x00, 0x00, 0x00, 0x00, 0x80, 0x00, 0x00, 0x00, 0x00, 0x00, 0x00, 0x00,
   0x00, 0x00, 0x00, 0x00, 0x00, 0x00, 0x00, 0x00, 0x00, 0x00, 0x80, 0x00,
   0x00, 0x00, 0x00, 0x00, 0x00, 0x00 };
